PathFileType	4	(X/Y/Z)	SUBJ32_2_walk_RCNL2025.trc
DataRate	CameraRate	NumFrames	NumMarkers	Units	OrigDataRate	OrigDataStartFrame	OrigNumFrames
100	100	8	25	mm	100	268	428
Frame#	Time	R_Shoulder			L_Shoulder			C7			J_Notch			R_Elbow			L_Elbow			R_Wrist			L_Wrist			R_Asis			L_Asis			Sacral			Thoracic			Sternum			R_Thigh_Lateral			R_Knee_Lateral			R_Shank_Lateral			R_Ankle_Lateral			R_Heel			R_Toe			L_Thigh_Lateral			L_Knee_Lateral			L_Shank_Lateral			L_Ankle_Lateral			L_Heel			L_Toe		
		X1	Y1	Z1	X2	Y2	Z2	X3	Y3	Z3	X4	Y4	Z4	X5	Y5	Z5	X6	Y6	Z6	X7	Y7	Z7	X8	Y8	Z8	X9	Y9	Z9	X10	Y10	Z10	X11	Y11	Z11	X12	Y12	Z12	X13	Y13	Z13	X14	Y14	Z14	X15	Y15	Z15	X16	Y16	Z16	X17	Y17	Z17	X18	Y18	Z18	X19	Y19	Z19	X20	Y20	Z20	X21	Y21	Z21	X22	Y22	Z22	X23	Y23	Z23	X24	Y24	Z24	X25	Y25	Z25
268	2.67000000	854.324402	1342.855713	63.986752	846.663513	1370.100220	-314.590149	830.583496	1436.170532	-110.546082	937.399231	1318.210815	-125.261856	731.281311	1020.498047	137.051514	731.359680	1074.317871	-426.903564	748.280640	771.577423	142.794922	750.237488	816.359619	-452.014145	906.956665	895.920105	-32.952240	879.950439	887.015442	-281.222717	695.767395	938.862366	-136.734634	705.728699	1202.892090	-128.621887	997.578369	1098.002319	-145.388367	872.074707	537.784668	49.154236	891.716125	444.745361	5.691082	893.015869	284.398102	72.332466	880.806335	61.934635	-45.297760	827.313538	53.165436	-94.967415	1010.845947	46.243191	-84.855675	808.432922	553.941284	-403.204376	810.963318	459.152283	-371.043549	666.929260	298.122437	-389.513000	519.199097	182.300156	-294.421539	482.430573	222.828598	-254.503647	576.558105	70.304695	-240.740616
269	2.68000000	864.723511	1344.391968	65.032524	856.504333	1371.404419	-313.699768	840.931885	1437.665405	-109.540504	947.551758	1319.639404	-124.300667	742.147644	1021.790039	138.055710	740.062622	1075.530396	-424.869781	759.830505	772.906219	143.274986	758.014130	817.409729	-449.202927	915.949646	897.139648	-31.466343	890.568115	888.474182	-279.760223	705.600464	940.374146	-136.193069	715.896179	1204.425537	-127.556763	1007.681519	1099.322388	-144.096100	876.203125	538.176453	49.860115	894.519165	444.670380	6.295438	894.720642	284.452789	72.816879	880.776733	61.891472	-45.187668	827.272278	53.347694	-94.864189	1010.827332	46.181755	-84.590836	825.355408	555.488647	-402.932800	830.128113	460.936340	-371.106720	687.541504	299.104553	-389.376068	539.930725	182.954071	-294.101410	502.043762	223.021149	-254.629501	599.705750	72.869408	-239.349152
270	2.69000000	874.988037	1345.871582	65.975487	866.285278	1372.568726	-312.918884	851.183777	1439.071167	-108.662140	957.616150	1320.985840	-123.427124	752.840393	1023.047119	138.994339	748.709534	1076.584839	-422.869873	771.155365	774.197998	143.750488	765.749481	818.303741	-446.372833	924.829773	898.332642	-29.957895	901.121277	889.877014	-278.361542	715.331970	941.817871	-135.755447	725.972778	1205.882690	-126.597282	1017.687439	1100.544312	-142.831070	880.229187	538.611389	50.433300	897.191772	444.629791	6.756375	896.030334	284.485107	73.095863	880.771545	61.885719	-45.120884	827.240479	53.533180	-94.803413	1010.830994	46.115463	-84.377762	842.153687	557.128113	-402.559662	849.103333	462.839417	-370.953888	708.404236	299.672699	-389.039520	561.365295	182.615997	-293.548187	522.200378	221.977814	-254.420425	624.265930	74.775681	-238.029388
271	2.70000000	885.123047	1347.277588	66.819458	876.015015	1373.582397	-312.239441	861.346191	1440.373657	-107.905060	967.598694	1322.234497	-122.636795	763.361816	1024.253174	139.869019	757.310913	1077.474731	-420.906464	782.251068	775.436249	144.228172	773.451599	819.036865	-443.534286	933.633728	899.469299	-28.457090	911.610901	891.207397	-277.030914	724.971252	943.178345	-135.417725	735.963928	1207.249268	-125.743729	1027.603882	1101.656494	-141.592422	884.150146	539.066650	50.878429	899.753540	444.621979	7.078404	896.944824	284.486206	73.182518	880.792358	61.918457	-45.105862	827.225708	53.718105	-94.799850	1010.850647	46.043438	-84.211899	858.793823	558.829346	-402.092255	867.862488	464.833374	-370.599579	729.478333	299.836029	-388.525055	583.457947	181.337875	-292.793427	542.938538	219.745438	-253.850021	650.023621	75.989487	-236.977371
272	2.71000000	895.135315	1348.594238	67.568520	885.702271	1374.435913	-311.653351	871.427002	1441.560181	-107.263031	977.506348	1323.370972	-121.925293	773.716309	1025.393311	140.682007	765.877502	1078.195557	-418.982666	793.116791	776.605774	144.714294	781.128693	819.605469	-440.697525	942.388977	900.515686	-26.995943	922.037720	892.449341	-275.771637	734.527893	944.441345	-135.174942	745.875488	1208.512451	-124.995316	1037.438843	1102.648193	-140.380035	887.973633	539.521423	51.204857	902.224854	444.642090	7.269354	897.569580	284.459930	73.105675	880.839294	61.988148	-45.149006	827.237000	53.899738	-94.867180	1010.879028	45.963978	-84.083900	875.238037	560.557007	-401.533722	886.382385	466.888306	-370.057892	750.724182	299.619751	-387.856873	606.174133	179.179947	-291.880371	564.297974	216.373566	-252.909958	676.800537	76.516357	-236.374176
273	2.72000000	905.033020	1349.807129	68.226875	895.355591	1375.121582	-311.152618	881.434631	1442.619507	-106.729683	987.346558	1324.382202	-121.288429	783.910339	1026.453613	141.436172	774.420044	1078.743652	-417.102112	803.754883	777.692566	145.214485	788.788635	820.007050	-437.872498	951.114563	901.438538	-25.603092	932.402405	893.587402	-274.586243	744.011963	945.593689	-135.021439	755.713623	1209.660522	-124.350281	1047.200317	1103.510010	-139.194550	891.717163	539.958313	51.424866	904.628113	444.682892	7.339766	898.073669	284.419342	72.905159	880.911865	62.091202	-45.254391	827.285095	54.076527	-95.017365	1010.910522	45.876793	-83.983192	891.448730	562.273987	-400.884613	904.641296	468.973785	-369.342285	772.100952	299.061829	-387.060944	629.491150	176.205261	-290.862000	586.317200	211.914169	-251.617126	704.458740	76.394684	-236.362091
274	2.73000000	914.825684	1350.903320	68.798706	904.983032	1375.633301	-310.730011	891.377808	1443.541626	-106.298691	997.126892	1325.256592	-120.722366	793.952271	1027.421631	142.134766	782.949158	1079.116699	-415.269043	814.170807	778.684021	145.733513	796.439270	820.239899	-435.068909	959.823181	902.209351	-24.300196	942.705566	894.606750	-273.476440	753.433411	946.623657	-134.951355	765.484924	1210.683350	-123.806061	1056.895874	1104.233154	-138.037369	895.406433	540.363586	51.552197	906.988403	444.735962	7.302130	898.632996	284.380402	72.623695	881.009399	62.222603	-45.423759	827.381348	54.248375	-95.259750	1010.942810	45.783745	-83.900307	907.393433	563.944153	-400.145142	922.617981	471.059448	-368.465698	793.566284	298.208008	-386.164062	653.398682	172.475647	-289.797791	609.032532	206.423157	-250.016998	732.896484	75.686111	-237.025543
275	2.74000000	924.523865	1351.871338	69.288002	914.592224	1375.966431	-310.379150	901.265381	1444.318604	-105.963974	1006.854919	1325.984131	-120.223770	803.852417	1028.286377	142.781204	791.474854	1079.313232	-413.488220	824.372925	779.568939	146.275154	804.088379	820.302856	-432.296127	968.523438	902.807312	-23.100189	952.948425	895.493530	-272.443207	762.802185	947.520630	-134.958786	775.196350	1211.571899	-123.359474	1066.533203	1104.810303	-136.910645	899.072876	540.727173	51.601006	909.332703	444.792450	7.170019	899.380676	284.355133	72.298607	881.130859	62.376427	-45.656704	827.535217	54.417171	-95.599327	1010.976196	45.688343	-83.827652	923.047974	565.534180	-399.316986	940.289978	473.114868	-367.440948	815.077820	297.106018	-385.192780	677.899048	168.049362	-288.749176	632.478394	199.962296	-248.181381	762.038635	74.464607	-238.378220
